<mxfile host="app.diagrams.net" modified="2023-10-31T03:01:14.336Z" agent="Mozilla/5.0 (Windows NT 10.0; Win64; x64) AppleWebKit/537.36 (KHTML, like Gecko) Chrome/118.0.0.0 Safari/537.36" version="22.0.8" etag="RMLf-LhC_M991X8_pKJK" type="github">
  <diagram name="Page-1" id="nj00nxEt1zmXVHaLai6r">
    <mxGraphModel>
      <root>
        <mxCell id="0" />
        <mxCell id="1" parent="0" />
      </root>
    </mxGraphModel>
  </diagram>
</mxfile>
